<mxfile host="app.diagrams.net" agent="Mozilla/5.0 (Windows NT 10.0; Win64; x64) AppleWebKit/537.36 (KHTML, like Gecko) Chrome/127.0.0.0 Safari/537.36 Edg/127.0.0.0" version="24.7.7">
  <diagram name="Page-1" id="yzF4D6-XRq4Gyi-xgkHe">
    <mxGraphModel dx="3108" dy="1268" grid="1" gridSize="10" guides="1" tooltips="1" connect="1" arrows="1" fold="1" page="1" pageScale="1" pageWidth="850" pageHeight="1100" math="0" shadow="0">
      <root>
        <mxCell id="0" />
        <mxCell id="1" parent="0" />
        <mxCell id="5DNSiCvBfAr2K-2wsGIy-17" value="" style="rounded=0;whiteSpace=wrap;html=1;fillColor=default;" vertex="1" parent="1">
          <mxGeometry x="140" y="330" width="720" height="420" as="geometry" />
        </mxCell>
        <mxCell id="5DNSiCvBfAr2K-2wsGIy-5" style="edgeStyle=orthogonalEdgeStyle;rounded=0;orthogonalLoop=1;jettySize=auto;html=1;" edge="1" parent="1" source="5DNSiCvBfAr2K-2wsGIy-1" target="5DNSiCvBfAr2K-2wsGIy-37">
          <mxGeometry relative="1" as="geometry">
            <mxPoint x="20" y="581" as="targetPoint" />
            <Array as="points">
              <mxPoint x="-90" y="511" />
              <mxPoint x="-90" y="581" />
            </Array>
          </mxGeometry>
        </mxCell>
        <mxCell id="5DNSiCvBfAr2K-2wsGIy-57" style="edgeStyle=orthogonalEdgeStyle;rounded=0;orthogonalLoop=1;jettySize=auto;html=1;exitX=0.5;exitY=0.5;exitDx=0;exitDy=0;exitPerimeter=0;dashed=1;" edge="1" parent="1" source="5DNSiCvBfAr2K-2wsGIy-1" target="5DNSiCvBfAr2K-2wsGIy-35">
          <mxGeometry relative="1" as="geometry">
            <Array as="points">
              <mxPoint x="-90" y="511" />
              <mxPoint x="-90" y="452" />
            </Array>
          </mxGeometry>
        </mxCell>
        <mxCell id="5DNSiCvBfAr2K-2wsGIy-1" value="المستخدم" style="shape=umlActor;verticalLabelPosition=bottom;verticalAlign=top;html=1;outlineConnect=0;" vertex="1" parent="1">
          <mxGeometry x="-244" y="481" width="30" height="60" as="geometry" />
        </mxCell>
        <mxCell id="5DNSiCvBfAr2K-2wsGIy-6" value="غير إلزامي" style="text;html=1;align=center;verticalAlign=middle;resizable=0;points=[];autosize=1;strokeColor=none;fillColor=none;rotation=0;" vertex="1" parent="1">
          <mxGeometry x="-68" y="425" width="70" height="30" as="geometry" />
        </mxCell>
        <mxCell id="5DNSiCvBfAr2K-2wsGIy-16" value="يحدد" style="text;html=1;align=center;verticalAlign=middle;resizable=0;points=[];autosize=1;strokeColor=none;fillColor=none;" vertex="1" parent="1">
          <mxGeometry x="-195" y="481" width="40" height="30" as="geometry" />
        </mxCell>
        <mxCell id="5DNSiCvBfAr2K-2wsGIy-27" style="edgeStyle=orthogonalEdgeStyle;rounded=0;orthogonalLoop=1;jettySize=auto;html=1;" edge="1" parent="1" target="5DNSiCvBfAr2K-2wsGIy-45">
          <mxGeometry relative="1" as="geometry">
            <mxPoint x="1030" y="510" as="targetPoint" />
            <mxPoint x="730" y="680" as="sourcePoint" />
            <Array as="points">
              <mxPoint x="826" y="680" />
              <mxPoint x="826" y="513" />
            </Array>
          </mxGeometry>
        </mxCell>
        <mxCell id="5DNSiCvBfAr2K-2wsGIy-54" style="edgeStyle=orthogonalEdgeStyle;rounded=0;orthogonalLoop=1;jettySize=auto;html=1;" edge="1" parent="1" source="5DNSiCvBfAr2K-2wsGIy-34" target="5DNSiCvBfAr2K-2wsGIy-41">
          <mxGeometry relative="1" as="geometry" />
        </mxCell>
        <mxCell id="5DNSiCvBfAr2K-2wsGIy-34" value="باني التوجيه" style="shape=process;whiteSpace=wrap;html=1;backgroundOutline=1;" vertex="1" parent="1">
          <mxGeometry x="279" y="493" width="120" height="60" as="geometry" />
        </mxCell>
        <mxCell id="5DNSiCvBfAr2K-2wsGIy-49" style="edgeStyle=orthogonalEdgeStyle;rounded=0;orthogonalLoop=1;jettySize=auto;html=1;" edge="1" parent="1" source="5DNSiCvBfAr2K-2wsGIy-35" target="5DNSiCvBfAr2K-2wsGIy-34">
          <mxGeometry relative="1" as="geometry">
            <Array as="points">
              <mxPoint x="230" y="459" />
              <mxPoint x="230" y="510" />
            </Array>
          </mxGeometry>
        </mxCell>
        <mxCell id="5DNSiCvBfAr2K-2wsGIy-35" value="ملاحظات" style="sketch=0;outlineConnect=0;fontColor=#232F3E;gradientColor=none;fillColor=#232F3D;strokeColor=none;dashed=0;verticalLabelPosition=bottom;verticalAlign=top;align=center;html=1;fontSize=12;fontStyle=0;aspect=fixed;pointerEvents=1;shape=mxgraph.aws4.document;" vertex="1" parent="1">
          <mxGeometry x="36.980000000000004" y="420" width="46.04" height="63" as="geometry" />
        </mxCell>
        <mxCell id="5DNSiCvBfAr2K-2wsGIy-55" style="edgeStyle=orthogonalEdgeStyle;rounded=0;orthogonalLoop=1;jettySize=auto;html=1;entryX=0;entryY=0.5;entryDx=0;entryDy=0;" edge="1" parent="1" source="5DNSiCvBfAr2K-2wsGIy-37" target="5DNSiCvBfAr2K-2wsGIy-34">
          <mxGeometry relative="1" as="geometry">
            <Array as="points">
              <mxPoint x="220" y="579" />
              <mxPoint x="220" y="523" />
            </Array>
          </mxGeometry>
        </mxCell>
        <mxCell id="5DNSiCvBfAr2K-2wsGIy-37" value="" style="sketch=0;outlineConnect=0;fontColor=#232F3E;gradientColor=none;fillColor=#232F3D;strokeColor=none;dashed=0;verticalLabelPosition=bottom;verticalAlign=top;align=center;html=1;fontSize=12;fontStyle=0;aspect=fixed;pointerEvents=1;shape=mxgraph.aws4.document;" vertex="1" parent="1">
          <mxGeometry x="36.980000000000004" y="547" width="46.04" height="63" as="geometry" />
        </mxCell>
        <mxCell id="5DNSiCvBfAr2K-2wsGIy-56" style="edgeStyle=orthogonalEdgeStyle;rounded=0;orthogonalLoop=1;jettySize=auto;html=1;entryX=0;entryY=0.75;entryDx=0;entryDy=0;" edge="1" parent="1" source="5DNSiCvBfAr2K-2wsGIy-40" target="5DNSiCvBfAr2K-2wsGIy-34">
          <mxGeometry relative="1" as="geometry">
            <Array as="points">
              <mxPoint x="230" y="538" />
            </Array>
          </mxGeometry>
        </mxCell>
        <mxCell id="5DNSiCvBfAr2K-2wsGIy-40" value="" style="sketch=0;outlineConnect=0;fontColor=#232F3E;gradientColor=none;fillColor=#232F3D;strokeColor=none;dashed=0;verticalLabelPosition=bottom;verticalAlign=top;align=center;html=1;fontSize=12;fontStyle=0;aspect=fixed;pointerEvents=1;shape=mxgraph.aws4.document;" vertex="1" parent="1">
          <mxGeometry x="210" y="647" width="46.04" height="63" as="geometry" />
        </mxCell>
        <mxCell id="5DNSiCvBfAr2K-2wsGIy-59" style="edgeStyle=orthogonalEdgeStyle;rounded=0;orthogonalLoop=1;jettySize=auto;html=1;entryX=0;entryY=0.5;entryDx=0;entryDy=0;" edge="1" parent="1" source="5DNSiCvBfAr2K-2wsGIy-41" target="5DNSiCvBfAr2K-2wsGIy-47">
          <mxGeometry relative="1" as="geometry" />
        </mxCell>
        <mxCell id="5DNSiCvBfAr2K-2wsGIy-41" value="&lt;span style=&quot;color: rgb(0, 0, 0); text-wrap: wrap;&quot;&gt;التويجه&lt;/span&gt;" style="sketch=0;outlineConnect=0;fontColor=#232F3E;gradientColor=none;fillColor=#232F3D;strokeColor=none;dashed=0;verticalLabelPosition=bottom;verticalAlign=top;align=center;html=1;fontSize=12;fontStyle=0;aspect=fixed;pointerEvents=1;shape=mxgraph.aws4.document;" vertex="1" parent="1">
          <mxGeometry x="402" y="640" width="46.04" height="63" as="geometry" />
        </mxCell>
        <mxCell id="5DNSiCvBfAr2K-2wsGIy-60" style="edgeStyle=orthogonalEdgeStyle;rounded=0;orthogonalLoop=1;jettySize=auto;html=1;entryX=0;entryY=0.5;entryDx=0;entryDy=0;" edge="1" parent="1" source="5DNSiCvBfAr2K-2wsGIy-42" target="5DNSiCvBfAr2K-2wsGIy-48">
          <mxGeometry relative="1" as="geometry">
            <Array as="points">
              <mxPoint x="670" y="679" />
            </Array>
          </mxGeometry>
        </mxCell>
        <mxCell id="5DNSiCvBfAr2K-2wsGIy-42" value="" style="sketch=0;outlineConnect=0;fontColor=#232F3E;gradientColor=none;fillColor=#232F3D;strokeColor=none;dashed=0;verticalLabelPosition=bottom;verticalAlign=top;align=center;html=1;fontSize=12;fontStyle=0;aspect=fixed;pointerEvents=1;shape=mxgraph.aws4.document;" vertex="1" parent="1">
          <mxGeometry x="646.98" y="490" width="46.04" height="63" as="geometry" />
        </mxCell>
        <mxCell id="5DNSiCvBfAr2K-2wsGIy-45" value="" style="sketch=0;outlineConnect=0;fontColor=#232F3E;gradientColor=none;fillColor=#232F3D;strokeColor=none;dashed=0;verticalLabelPosition=bottom;verticalAlign=top;align=center;html=1;fontSize=12;fontStyle=0;aspect=fixed;pointerEvents=1;shape=mxgraph.aws4.document;" vertex="1" parent="1">
          <mxGeometry x="1010" y="481" width="46.04" height="63" as="geometry" />
        </mxCell>
        <mxCell id="5DNSiCvBfAr2K-2wsGIy-58" style="edgeStyle=orthogonalEdgeStyle;rounded=0;orthogonalLoop=1;jettySize=auto;html=1;" edge="1" parent="1" source="5DNSiCvBfAr2K-2wsGIy-47" target="5DNSiCvBfAr2K-2wsGIy-42">
          <mxGeometry relative="1" as="geometry" />
        </mxCell>
        <mxCell id="5DNSiCvBfAr2K-2wsGIy-47" value="نموذج لغوي" style="shape=process;whiteSpace=wrap;html=1;backgroundOutline=1;" vertex="1" parent="1">
          <mxGeometry x="526.98" y="380" width="120" height="60" as="geometry" />
        </mxCell>
        <mxCell id="5DNSiCvBfAr2K-2wsGIy-48" value="محلل" style="shape=process;whiteSpace=wrap;html=1;backgroundOutline=1;" vertex="1" parent="1">
          <mxGeometry x="693.02" y="648.5" width="120" height="60" as="geometry" />
        </mxCell>
        <mxCell id="5DNSiCvBfAr2K-2wsGIy-67" value="نص يحتوي على السيناريوهات المستخرجة" style="text;html=1;align=center;verticalAlign=middle;whiteSpace=wrap;rounded=0;" vertex="1" parent="1">
          <mxGeometry x="690" y="513" width="110" height="20" as="geometry" />
        </mxCell>
        <mxCell id="5DNSiCvBfAr2K-2wsGIy-68" value="تعليمات خاصة بالتوجيه" style="text;html=1;align=center;verticalAlign=middle;whiteSpace=wrap;rounded=0;" vertex="1" parent="1">
          <mxGeometry x="178.01999999999998" y="710" width="110" height="20" as="geometry" />
        </mxCell>
        <mxCell id="5DNSiCvBfAr2K-2wsGIy-69" value="توصيف العملية" style="text;html=1;align=center;verticalAlign=middle;whiteSpace=wrap;rounded=0;" vertex="1" parent="1">
          <mxGeometry x="4.999999999999972" y="610" width="110" height="20" as="geometry" />
        </mxCell>
        <mxCell id="5DNSiCvBfAr2K-2wsGIy-70" value="قائمة من السيناريوهات" style="text;html=1;align=center;verticalAlign=middle;whiteSpace=wrap;rounded=0;" vertex="1" parent="1">
          <mxGeometry x="978.02" y="547" width="110" height="20" as="geometry" />
        </mxCell>
        <mxCell id="5DNSiCvBfAr2K-2wsGIy-71" value="&lt;b&gt;الخطوة الأولى&lt;/b&gt;" style="rounded=0;whiteSpace=wrap;html=1;" vertex="1" parent="1">
          <mxGeometry x="140" y="290" width="720" height="40" as="geometry" />
        </mxCell>
      </root>
    </mxGraphModel>
  </diagram>
</mxfile>
